<?xml version="1.0" encoding="UTF-8"?>
<svg enable-background="new 0 0 113 40" version="1.1" viewBox="0 0 113 40" xml:space="preserve" xmlns="http://www.w3.org/2000/svg">
<style type="text/css">
	.st0{fill:#002436;}
</style>

	
		<path class="st0" d="m53.88 19.5v-1h-49.18v2.1h49.3c-0.12-0.3-0.12-0.7-0.12-1.1z"/>
		<path class="st0" d="m105.7 19.6-13.4-6.4v5.3h-38.4v2.1h38.4v5.3l13.4-6.3zm-11 0v-2.8l6 2.8-6 2.8v-2.8z"/>
	

<path d="m92.361 23.203v-2.611h-87.598v-2.0545h49.029l0.0069 0.58368c0.0038 0.32102 0.04057 0.77279 0.0817 1.0039 0.0607 0.34111 0.07698 0.2312 0.08647-0.58368l0.01169-1.0039h38.38l0.0496-5.2272 6.4438 3.0761c3.5441 1.6918 6.5004 3.1101 6.5695 3.1517 0.0828 0.04983-1.7031 0.93434-5.2298 2.5901-2.9455 1.383-5.9123 2.778-6.5929 3.1002l-1.2374 0.5857zm6.0503-2.4724c1.2988-0.60668 2.3284-1.1332 2.288-1.17-0.0591-0.05389-5.463-2.5964-5.8869-2.7697-0.09188-0.03758-0.11674 0.56026-0.11674 2.8082v2.856l0.67707-0.3107c0.37239-0.17088 1.7397-0.80707 3.0385-1.4138z" stroke-width=".093388"/><path d="m53.92 20.289c-0.03671-0.09656-0.08152-0.44305-0.10505-0.81232-0.0093-0.14576-0.01736-0.46248-0.01747-0.68558-5.8e-5 -0.11111-0.0018-0.2142-0.0038-0.22909l-0.0037-0.02708h-13.219v-0.02918h13.308v0.68048c0 0.63436 0.0035 0.82867 0.01719 0.94617 0.0025 0.02186 5e-3 -0.33519 0.0054-0.79345l7.67e-4 -0.8332h14.989v0.02918h-14.912l-0.0031 0.03648c-0.0017 0.02006-0.0059 0.31489-0.0094 0.65518-0.0081 0.78793-0.01618 1.037-0.03483 1.0704-0.0044 0.0079-0.0064 0.0065-0.01189-8e-3z" stroke-width=".0058368"/></svg>
